# xmcd
#
# Track frame offsets:
#	150
#	10921
#	30399
#	42950
#	62862
#	85301
#	101341
#	114796
#	141553
#	164442
#
# Disc length: 2509 seconds
# Revision: 0
# Processed by: cddbd v1.5.2PL0 Copyright (c) Steve Scherf et al.
# Submitted via: dBpowerAMP V12.0
#
DISCID=7b09cb0a
DTITLE=The Not So Good Ol' Boys - Hard Road Rode Hard
DYEAR=1900
DGENRE=
TTITLE0=Lonely Side Of Town
TTITLE1=Crooked Line
TTITLE2=Bad Days Follow Good Nights
TTITLE3=Ol' Chevy
TTITLE4=Nashville
TTITLE5=Darker Than The Devil
TTITLE6=Poison Never Tasted This Good
TTITLE7=Just A Man
TTITLE8=Whiskey Woman
TTITLE9=Hard Road
EXTD=
EXTT0=
EXTT1=
EXTT2=
EXTT3=
EXTT4=
EXTT5=
EXTT6=
EXTT7=
EXTT8=
EXTT9=
PLAYORDER=
